<svg width="64" height="64" viewBox="0 0 64 64" fill="none" xmlns="http://www.w3.org/2000/svg">
<circle cx="32" cy="32" r="32" fill="#45B3CB" fill-opacity="0.1"/>
<path fill-rule="evenodd" clip-rule="evenodd" d="M37.8634 15.1011C38.673 15.1011 39.3293 15.7574 39.3293 16.5669V47.8386C39.3293 48.6482 38.673 49.3045 37.8634 49.3045C37.0539 49.3045 36.3976 48.6482 36.3976 47.8386V16.5669C36.3976 15.7574 37.0539 15.1011 37.8634 15.1011ZM32 20.9645C32.8096 20.9645 33.4659 21.6208 33.4659 22.4304V41.9752C33.4659 42.7847 32.8096 43.441 32 43.441C31.1904 43.441 30.5341 42.7847 30.5341 41.9752V22.4304C30.5341 21.6208 31.1904 20.9645 32 20.9645ZM20.2731 22.919C21.0827 22.919 21.739 23.5753 21.739 24.3849V40.0207C21.739 40.8303 21.0827 41.4866 20.2731 41.4866C19.4635 41.4866 18.8073 40.8303 18.8073 40.0207V24.3849C18.8073 23.5753 19.4635 22.919 20.2731 22.919ZM43.7269 24.8735C44.5364 24.8735 45.1927 25.5298 45.1927 26.3393V38.0662C45.1927 38.8758 44.5364 39.5321 43.7269 39.5321C42.9173 39.5321 42.261 38.8758 42.261 38.0662V26.3393C42.261 25.5298 42.9173 24.8735 43.7269 24.8735ZM26.1366 26.828C26.9461 26.828 27.6024 27.4842 27.6024 28.2938V36.1117C27.6024 36.9213 26.9461 37.5776 26.1366 37.5776C25.327 37.5776 24.6707 36.9213 24.6707 36.1117V28.2938C24.6707 27.4842 25.327 26.828 26.1366 26.828ZM14.4097 28.7824C15.2192 28.7824 15.8755 29.4387 15.8755 30.2483V34.1573C15.8755 34.9668 15.2192 35.6231 14.4097 35.6231C13.6001 35.6231 12.9438 34.9668 12.9438 34.1573V30.2483C12.9438 29.4387 13.6001 28.7824 14.4097 28.7824ZM49.5903 28.7824C50.3999 28.7824 51.0562 29.4387 51.0562 30.2483V34.1573C51.0562 34.9668 50.3999 35.6231 49.5903 35.6231C48.7807 35.6231 48.1245 34.9668 48.1245 34.1573V30.2483C48.1245 29.4387 48.7807 28.7824 49.5903 28.7824Z" fill="#45B3CB"/>
</svg>
